# xmcd
# 
# Track frame offsets:
#     150
#     46140
#     82315
#     114662
#     146497
#     188417
#     219720
#     243405
#     280722
# 
# Disc length: 4168
# 
# Revision: 5
# Processed by: cddbd v1.5.2PL0 Copyright (c) Steve Scherf et al.
# Submitted via: fre:ac v1.0.17
# 
DISCID=7f104609
DTITLE=Domnerus-Hallberg-Erstrand-Riedel-Johansen - Jazz At The Pawnshop
DYEAR=1976
DGENRE=Jazz
TTITLE0=Limehouse Blues
TTITLE1=I'm Confessin'
TTITLE2=High Life
TTITLE3=Jeeps Blues
TTITLE4=Lady Be Good
TTITLE5=Take Five
TTITLE6=Everything Happens To Me
TTITLE7=Barbados
TTITLE8=Stuffy
EXTD=YEAR: 1986
EXTT0=
EXTT1=
EXTT2=
EXTT3=
EXTT4=
EXTT5=
EXTT6=
EXTT7=
EXTT8=
PLAYORDER=
